<svg xmlns="http://www.w3.org/2000/svg" width="113" height="113" viewBox="0 0 113 113">
  <g id="Group_2819" data-name="Group 2819" transform="translate(-300 -1490)">
    <g id="Group_2130" data-name="Group 2130">
      <path id="Path_1255" data-name="Path 1255" d="M57.972,8.277a48.488,48.488,0,0,1,5.448.467L64.856.6A56.672,56.672,0,0,0,57.972,0Z" transform="translate(300 1490)" fill="#597ef7"/>
      <path id="Path_1256" data-name="Path 1256" d="M66.327,9.249a47.891,47.891,0,0,1,5.28,1.427L74.437,2.9a55.955,55.955,0,0,0-6.675-1.79Z" transform="translate(300 1490)" fill="#597ef7"/>
      <path id="Path_1262" data-name="Path 1262" d="M92.481,24.383l6.33-5.311a56.82,56.82,0,0,0-4.883-4.883l-5.311,6.33a48.916,48.916,0,0,1,3.864,3.864" transform="translate(300 1490)" fill="#597ef7"/>
      <path id="Path_1263" data-name="Path 1263" d="M110.1,38.561l-7.775,2.83a47.745,47.745,0,0,1,1.427,5.281l8.139-1.436a55.959,55.959,0,0,0-1.791-6.675" transform="translate(300 1490)" fill="#597ef7"/>
      <path id="Path_1264" data-name="Path 1264" d="M94.375,26.644a48.346,48.346,0,0,1,3.145,4.47l7.159-4.134a56.693,56.693,0,0,0-3.97-5.652Z" transform="translate(300 1490)" fill="#597ef7"/>
      <path id="Path_1265" data-name="Path 1265" d="M81.879,15.48a48.733,48.733,0,0,1,4.47,3.145l5.315-6.335a56.86,56.86,0,0,0-5.652-3.97Z" transform="translate(300 1490)" fill="#597ef7"/>
      <path id="Path_1266" data-name="Path 1266" d="M99,33.664a48.058,48.058,0,0,1,2.309,4.957l7.778-2.831a56.347,56.347,0,0,0-2.93-6.258Z" transform="translate(300 1490)" fill="#597ef7"/>
      <path id="Path_1267" data-name="Path 1267" d="M74.377,11.688A48.059,48.059,0,0,1,79.334,14L83.466,6.84a56.332,56.332,0,0,0-6.257-2.93Z" transform="translate(300 1490)" fill="#597ef7"/>
      <path id="Path_1273" data-name="Path 1273" d="M104.256,49.577a48.488,48.488,0,0,1,.467,5.448H113a56.673,56.673,0,0,0-.6-6.884Z" transform="translate(300 1490)" fill="#597ef7"/>
      <path id="Path_1274" data-name="Path 1274" d="M104.723,57.975a48.488,48.488,0,0,1-.467,5.448l8.144,1.436a56.706,56.706,0,0,0,.6-6.885Z" transform="translate(300 1490)" fill="#597ef7"/>
      <path id="Path_1275" data-name="Path 1275" d="M103.751,66.33a47.745,47.745,0,0,1-1.427,5.281l7.775,2.83a55.96,55.96,0,0,0,1.791-6.675Z" transform="translate(300 1490)" fill="#597ef7"/>
    </g>
    <g id="Group_2131" data-name="Group 2131">
      <path id="Path_1245" data-name="Path 1245" d="M9.248,46.67a47.665,47.665,0,0,1,1.426-5.28L2.9,38.56a55.959,55.959,0,0,0-1.791,6.675Z" transform="translate(300 1490)" fill="#9aa4c2"/>
      <path id="Path_1246" data-name="Path 1246" d="M15.48,31.114a48.734,48.734,0,0,1,3.145-4.47L12.29,21.329a56.859,56.859,0,0,0-3.97,5.652Z" transform="translate(300 1490)" fill="#9aa4c2"/>
      <path id="Path_1247" data-name="Path 1247" d="M11.688,38.621A48.059,48.059,0,0,1,14,33.664L6.84,29.532A56.346,56.346,0,0,0,3.91,35.79Z" transform="translate(300 1490)" fill="#9aa4c2"/>
      <path id="Path_1248" data-name="Path 1248" d="M20.519,88.617l-6.33,5.311a56.964,56.964,0,0,0,4.883,4.883l5.311-6.33a48.916,48.916,0,0,1-3.864-3.864" transform="translate(300 1490)" fill="#9aa4c2"/>
      <path id="Path_1249" data-name="Path 1249" d="M8.277,55.026a48.488,48.488,0,0,1,.467-5.448L.6,48.142A56.672,56.672,0,0,0,0,55.026Z" transform="translate(300 1490)" fill="#9aa4c2"/>
      <path id="Path_1250" data-name="Path 1250" d="M14,79.337a48.058,48.058,0,0,1-2.309-4.957L3.91,77.211a56.346,56.346,0,0,0,2.93,6.258Z" transform="translate(300 1490)" fill="#9aa4c2"/>
      <path id="Path_1251" data-name="Path 1251" d="M10.676,71.609a47.666,47.666,0,0,1-1.426-5.28L1.11,67.764A55.956,55.956,0,0,0,2.9,74.439Z" transform="translate(300 1490)" fill="#9aa4c2"/>
      <path id="Path_1252" data-name="Path 1252" d="M8.744,63.423a48.488,48.488,0,0,1-.467-5.448H0a56.672,56.672,0,0,0,.6,6.884Z" transform="translate(300 1490)" fill="#9aa4c2"/>
      <path id="Path_1253" data-name="Path 1253" d="M18.625,86.356a48.348,48.348,0,0,1-3.145-4.47L8.316,86.02a56.692,56.692,0,0,0,3.97,5.652Z" transform="translate(300 1490)" fill="#9aa4c2"/>
      <path id="Path_1254" data-name="Path 1254" d="M49.573,8.744a48.486,48.486,0,0,1,5.449-.467V0a56.721,56.721,0,0,0-6.887.6Z" transform="translate(300 1490)" fill="#9aa4c2"/>
      <path id="Path_1257" data-name="Path 1257" d="M33.664,14a48.059,48.059,0,0,1,4.957-2.309L35.789,3.911a56.346,56.346,0,0,0-6.258,2.93Z" transform="translate(300 1490)" fill="#9aa4c2"/>
      <path id="Path_1258" data-name="Path 1258" d="M26.644,18.625a48.2,48.2,0,0,1,4.469-3.145L26.981,8.316a56.693,56.693,0,0,0-5.652,3.97Z" transform="translate(300 1490)" fill="#9aa4c2"/>
      <path id="Path_1259" data-name="Path 1259" d="M41.39,10.676A47.665,47.665,0,0,1,46.67,9.25L45.235,1.11A56.145,56.145,0,0,0,38.56,2.9Z" transform="translate(300 1490)" fill="#9aa4c2"/>
      <path id="Path_1260" data-name="Path 1260" d="M20.519,24.383a48.916,48.916,0,0,1,3.864-3.864l-5.311-6.33a56.82,56.82,0,0,0-4.883,4.883Z" transform="translate(300 1490)" fill="#9aa4c2"/>
      <path id="Path_1261" data-name="Path 1261" d="M92.481,88.617a48.916,48.916,0,0,1-3.864,3.864l5.311,6.33a56.809,56.809,0,0,0,4.882-4.883Z" transform="translate(300 1490)" fill="#9aa4c2"/>
      <path id="Path_1268" data-name="Path 1268" d="M79.336,99a48.058,48.058,0,0,1-4.957,2.309l2.831,7.778a56.347,56.347,0,0,0,6.258-2.93Z" transform="translate(300 1490)" fill="#9aa4c2"/>
      <path id="Path_1269" data-name="Path 1269" d="M86.355,94.375a48.347,48.347,0,0,1-4.47,3.145l4.134,7.159a56.692,56.692,0,0,0,5.652-3.97Z" transform="translate(300 1490)" fill="#9aa4c2"/>
      <path id="Path_1270" data-name="Path 1270" d="M71.609,102.324a47.745,47.745,0,0,1-5.281,1.427l1.435,8.139a55.96,55.96,0,0,0,6.675-1.791Z" transform="translate(300 1490)" fill="#9aa4c2"/>
      <path id="Path_1271" data-name="Path 1271" d="M97.52,81.881a48.55,48.55,0,0,1-3.146,4.47l6.335,5.315a56.859,56.859,0,0,0,3.97-5.652Z" transform="translate(300 1490)" fill="#9aa4c2"/>
      <path id="Path_1272" data-name="Path 1272" d="M101.312,74.38A48.058,48.058,0,0,1,99,79.337l7.157,4.132a56.347,56.347,0,0,0,2.93-6.258Z" transform="translate(300 1490)" fill="#9aa4c2"/>
      <path id="Path_1276" data-name="Path 1276" d="M63.422,104.256a48.45,48.45,0,0,1-5.447.467V113a56.674,56.674,0,0,0,6.883-.6Z" transform="translate(300 1490)" fill="#9aa4c2"/>
      <path id="Path_1277" data-name="Path 1277" d="M46.671,103.751a47.889,47.889,0,0,1-5.28-1.427l-2.83,7.775a55.955,55.955,0,0,0,6.675,1.79Z" transform="translate(300 1490)" fill="#9aa4c2"/>
      <path id="Path_1278" data-name="Path 1278" d="M31.114,97.52a48.734,48.734,0,0,1-4.47-3.145l-5.315,6.335a56.845,56.845,0,0,0,5.651,3.97Z" transform="translate(300 1490)" fill="#9aa4c2"/>
      <path id="Path_1279" data-name="Path 1279" d="M55.025,104.723a48.488,48.488,0,0,1-5.448-.467l-1.44,8.144a56.672,56.672,0,0,0,6.884.6Z" transform="translate(300 1490)" fill="#9aa4c2"/>
      <path id="Path_1280" data-name="Path 1280" d="M38.621,101.312A48.058,48.058,0,0,1,33.664,99l-4.132,7.157a56.332,56.332,0,0,0,6.257,2.93Z" transform="translate(300 1490)" fill="#9aa4c2"/>
    </g>
  </g>
</svg>
